<svg width="27" height="27" viewBox="0 0 27 27" fill="none" xmlns="http://www.w3.org/2000/svg">
<path d="M0.732244 25.7322C-0.244067 24.7559 -0.244067 23.173 0.732244 22.1967L21.9454 0.983497C22.9218 0.007186 24.5047 0.0071854 25.481 0.983496C26.4573 1.95981 26.4573 3.54272 25.481 4.51903L4.26778 25.7322C3.29147 26.7085 1.70855 26.7085 0.732244 25.7322Z" fill="#000"/>
<path d="M0.732233 0.732233C1.70854 -0.244078 3.29146 -0.244078 4.26777 0.732233L25.481 21.9454C26.4573 22.9217 26.4573 24.5047 25.481 25.481C24.5047 26.4573 22.9217 26.4573 21.9454 25.481L0.732233 4.26777C-0.244077 3.29146 -0.244078 1.70854 0.732233 0.732233Z" fill="#000"/>
</svg>
